<svg xmlns="http://www.w3.org/2000/svg" viewBox="0 0 407.04 152.73"><defs><style>.cls-1{fill:#af7e2c;}.cls-2{fill:#ed2328;}.cls-3{fill:#0e9347;}.cls-4{fill:#0f9447;}</style></defs><g id="Layer_2" data-name="Layer 2"><g id="UJ_Honved_Egyuttes_logo_Image" data-name="UJ Honved Egyuttes logo Image"><path class="cls-1" d="M0,90.73l21.55,0H32.18l-.89,9.13a6.88,6.88,0,0,1-.79-1.3c-.88-3.81-1.66-4.67-5.5-5-3.26-.29-6.54-.22-9.81-.36-1.57-.07-2.12.67-2.11,2.15.07,6.55.05,13.11.21,19.66A2.38,2.38,0,0,0,15,116.61c4.15,0,8.3-.1,12.44-.37,1.12-.07,2.19-.81,3.55-1.35-.29,3.34-.57,6.63-.86,9.92l-.42,0a9,9,0,0,1-.3-1.24,4.14,4.14,0,0,0-4.2-4.09c-3.34-.28-6.7-.32-10-.54-1.65-.11-2.09.76-2.07,2.16.08,6.79.1,13.59.27,20.38.08,3,1.39,4.36,4.44,4.54a72.15,72.15,0,0,0,9.3,0c3.85-.27,5.14-1.53,6.14-5.21.14-.52.31-1,.46-1.55l.73.13c-.49,2.92-.83,5.87-1.59,8.71-.15.57-1.89,1-2.89,1-7.66-.07-15.33-.27-23-.42A46.61,46.61,0,0,1,2,148.51c2.09-.45,4-1.1,4.29-3.53a25.29,25.29,0,0,0,.42-3.08c0-15.19.13-30.38.07-45.57,0-3.91-1.16-4.6-6.78-5.12Z"/><path class="cls-1" d="M407,136.33a3.34,3.34,0,0,0-.47.81C404.26,147.53,395.14,151,386,149.93c-8.72-1-8.71-1.24-8.54-9.94a7.33,7.33,0,0,1,.95-3.63c.07.41.17.83.2,1.24.38,5.67,4,9.23,10.11,9.85s11.24-2.41,12.54-7.64c.94-3.81.55-7.66-2.23-10.58-3.41-3.56-7.27-6.7-10.85-10.1a61,61,0,0,1-5.78-6c-3.15-3.94-3.81-8.62-2.77-13.4,1.28-5.88,7-10.11,13.78-10.18a83.64,83.64,0,0,1,10.68,1c.5.06,1.3.68,1.32,1.07.11,2.83.06,5.66.06,8.49l-.69.08a7.08,7.08,0,0,1-.49-1.35,6.93,6.93,0,0,0-5.83-6.2,18.86,18.86,0,0,0-8-.18c-6.79,1.76-8.85,9.92-4,15.38a56.16,56.16,0,0,0,7.64,6.89c5.7,4.4,10.94,9.08,12.94,16.37Z"/><path class="cls-1" d="M319.2,0l2.31,4.13-16,4.2L318.24,0Z"/><path class="cls-2" d="M103.06,40.4A16,16,0,0,0,103,55.76c3.55,7.21,9.19,11.69,17.23,13a12.14,12.14,0,0,1,2.92,1.42c-.8.48-1,.73-1.19.7a6.44,6.44,0,0,0-7.26,2.72.81.81,0,0,1-.64.26c-2.85-.57-5.26,1.15-7.93,1.45a1.82,1.82,0,0,1-1.29-.32C100.12,70.63,94.25,67.47,91,61.63c-3-5.28-5-10.73-4.7-17,.23-4.22.48-8.44,2.43-12.19,1.53-3,3.81-5.53,5.75-8.27a21.37,21.37,0,0,1,2.76-3.86,32.33,32.33,0,0,1,16.88-7.93,7.21,7.21,0,0,1,5.74,1.21,31.55,31.55,0,0,1-3.43,4.48c-3.16,2.86,1.54,3,1.38,5.14l-9.52,9.25c-2.33,2.26-4.62,4.53-5.19,7.93Z"/><path class="cls-1" d="M202.77,15.1h15.88c0,.12,0,.38-.05.38-3.54.66-4.65,1-4.66,6.33q-.06,22.44-.18,44.86a39.07,39.07,0,0,1-.46,7.12c-16.32-15-31-31.38-46.31-48.23,0,4.63-.09,8.5,0,12.36.23,8.39.56,16.77.85,25.15,0,.32,0,.64,0,1,.08,6.59.56,7.21,6.77,9H158c.06-.14.08-.36.16-.38,4.72-1.27,5.13-1.78,5.15-6.73q.1-24.58.19-49.18a17.93,17.93,0,0,1,.39-2.7l.69-.32c15.06,16.28,30.13,32.57,45.7,49.38,0-4.67.08-8.62,0-12.56q-.35-14.51-.85-29c-.16-4.63-1.07-5.47-5.67-5.89a7.1,7.1,0,0,1-1-.21Z"/><path class="cls-1" d="M334.28,15c3.62,0,7.25-.05,10.88,0,7.42.12,14.88-.18,22.25.56,15.12,1.51,24.9,12.09,25.09,27,.14,10.5-3.46,19.42-12.09,25.8a27.33,27.33,0,0,1-16.57,5.41c-6.54,0-13.08-.52-19.62-.75-1.75-.06-3.5.11-5.26.15a18.29,18.29,0,0,1-3.67-.22c5.39-.48,4.89-4.66,4.93-7.93.19-14.79.16-29.57.06-44.36C340.25,16.88,339.33,16.3,334.28,15Zm12.4,25.37h.24c0,8.07,0,16.15,0,24.22,0,4,.87,5.31,4.71,6a46.18,46.18,0,0,0,11.18.87c7.83-.45,15-3.15,19-10.23,5.7-10.07,5.79-20.65-.17-30.79-7-12-20.63-14.46-32.95-12.95-1.85.22-2.06,1.47-2.06,2.92Q346.7,30.42,346.68,40.37Z"/><path class="cls-1" d="M38.56,73.14h-18c4.47-.78,4.56-4.13,4.58-7.5q.17-21.36.32-42.71,0-.36,0-.72c-.46-5.55-.7-5.81-6-7h17c0,.08,0,.33-.06.34-4,1.07-4.31,1-4.55,5.2-.33,5.74-.2,11.51-.13,17.27,0,.5,1,1.41,1.61,1.41,10.24.09,20.48.06,30.71.08,1.35,0,1.85-.56,1.83-1.87-.06-5.6,0-11.2-.13-16.79-.11-3.7-.75-4.17-5.73-5.71H76.75l.1.29c-.46.13-.91.29-1.38.39a3.58,3.58,0,0,0-3.11,3.69c-.16,4.39-.43,8.79-.41,13.18.06,11,.24,22.07.41,33.1.08,5.29.48,5.74,5.56,6.77a1,1,0,0,1,.72.6H61c.12-.21.2-.51.31-.52,3.58-.39,4.12-2.9,4.17-5.84.11-7.51.22-15,.42-22.54,0-1.75-.71-2.15-2.29-2.15q-14.88.07-29.76,0c-1.66,0-2.27.52-2.23,2.2.19,7.83.25,15.66.46,23.5.08,3,1.07,4,4.12,4.46.83.13,1.65.33,2.47.5Z"/><path class="cls-3" d="M133.87,152.73c-1.08-13.19-8.3-23.13-16.61-32.53-5-5.67-10.34-11.1-13.52-18.16a30.58,30.58,0,0,1-2.39-18.6c2.92,3.8,5.47,7.56,8.46,10.92,4.24,4.77,8.85,9.21,13.22,13.86,1.62,1.74,3,3.68,4.7,5.74,0-1.63.1-3.07,0-4.49a12.61,12.61,0,0,1,4.52-11.06c2.82-2.47,5.65-5,8.27-7.63a71.56,71.56,0,0,0,4.74-5.9c2,3.35,1.49,12-3.44,16.36-4.2,3.67-8.38,7.38-11.23,12.33a4.77,4.77,0,0,0,0,5.49c4.64,7.74,5.12,16.29,4.43,25C134.76,147,134.25,149.84,133.87,152.73Z"/><path class="cls-1" d="M92.74,104.52c-.37-.59-.62-.81-.65-1.06-.73-6.16-5-8.78-10.34-10.14-8.11-2-16.13-2.24-23.72,2-6,3.34-8.81,8.91-10,15.35-1.69,9.57.13,18.48,6.17,26.22,6.61,8.46,19.2,12.26,29.41,9.17,2-.6,3.23-1.82,3.22-3.93,0-5.43,0-10.88-.26-16.3-.17-3.53-1.11-4.26-4.66-4.88a2.25,2.25,0,0,1-1.35-.57h18a3.88,3.88,0,0,1-.79.5c-4,1-4.61,1.58-4.7,5.87-.11,5.6-.16,11.2,0,16.8,0,2-.66,3.18-2.49,3.79-13.71,4.58-26.89,4.08-39-4.5-5.78-4.1-8.53-10.24-9.86-17a31.11,31.11,0,0,1,4-23C50.54,94.84,58,91.12,67,89.87a60.12,60.12,0,0,1,19.3.86c1.72.32,3.5.33,5.2.73.73.18,1.88,1,1.87,1.54C93.31,96.7,93,100.4,92.74,104.52Z"/><path class="cls-1" d="M155.71,90.67h17.44c-.17.33-.21.53-.31.55-4.2,1.31-4.48,1.65-4.49,6.2,0,10.23-.13,20.46.07,30.68.11,5.59,1.45,10.84,5.68,15.05,7.51,7.49,24.58,5.71,27.54-8.91a48.82,48.82,0,0,0,1-8.77c.13-8.55.05-17.11.05-25.67,0-6.86,0-6.86-6.77-9.11h16.4c-.1.28-.12.48-.2.5-4.25,1.42-4.79,2.12-4.83,7.14-.06,9.19.06,18.39-.12,27.59-.09,5.14-.92,10.24-3.82,14.65-5.08,7.71-12.68,10-21.43,9.39-4.62-.33-9-1.57-12.62-4.59-5.34-4.43-7.16-10.5-7.39-17.05-.29-8.14-.1-16.31-.16-24.47,0-2.47-.13-4.95-.28-7.42-.21-3.76-.7-4.27-4.45-5-.46-.08-.92-.2-1.38-.31Z"/><path class="cls-1" d="M255.39,74.31c-.7-1.66-1.45-3.3-2.12-5-6.17-15.41-12.37-30.81-18.48-46.25-1.64-4.13-3.56-7.73-8.75-8H244.7c-.1.2-.14.43-.22.44-4.28.64-4.62,1.16-3.1,5.24q7.56,20.3,15.18,40.55c.27.71.67,1.36,1.32,2.64,1.8-4.45,3.44-8.3,4.93-12.21,3.87-10.13,7.68-20.29,11.51-30.44.22-.6.41-1.22.57-1.83.67-2.65,0-3.55-2.65-3.82-.39,0-.78-.08-1.17-.14-.05,0-.1-.1-.37-.4H286c-4.24.2-5.81,3.28-7.16,6.52-5,12-10,24-15,36-2.07,4.93-4.31,9.78-6.5,14.66a20.4,20.4,0,0,1-1.13,2Z"/><path class="cls-3" d="M129.39,20.45c9.46,1,18.48,11.52,20.77,21.28a19.83,19.83,0,0,0-1.39-2.26,4.49,4.49,0,0,0-1.84-1.29c2.15,2.91,1.95,6.26,2.21,9.51,0,.39-.07.9.13,1.17,3.39,4.52,0,8.7-.59,13-.76,5.17-3.91,8.74-7.72,12-1,.83-1.53,2.18-2.36,3.41l-1.35-4.31-3,1.42.51-2.81c-4,3.44-8.44,4.61-13.14,5a1.71,1.71,0,0,1-1.43-.76l6.23-1.38-.08-.47-3.4.42,1.92-1.34-3.26.22-.09-.45c2.86-1,5.74-2,8.57-3.11,8.21-3.21,11.47-9.41,11.54-18.21,0-1.27-1.14-2.52-1.51-3.85-.67-2.36-1-4.82-1.75-7.15a11.44,11.44,0,0,0-6.67-7.36c-2.73-1.08-4.17-3.29-6.06-5.13a1.44,1.44,0,0,1-.12-1.29,21.32,21.32,0,0,1,1.67-3.43c.3-.49,1.07-.66,1.49-1.1A6.7,6.7,0,0,0,129.39,20.45Zm16.22,36.31c-.88,5-3.58,9.06-6.85,12.8C142.82,68.45,146.53,61.49,145.61,56.76Zm-4.52-18-.82.43,3.59,7,.78-.4Q142.87,42.29,141.09,38.8Z"/><path class="cls-1" d="M335.34,148.73c3.75-.22,4.12-3,4.44-5.68a42.44,42.44,0,0,0,.19-4.79c0-12.71,0-25.41,0-38.12,0-6.79.05-6.79-5.69-9.56h31.18c-.33,2.8-.68,5.75-1.09,9.19-.33-.62-.54-.84-.56-1.08-.29-3.73-1.74-4.8-6.44-5.16-2.86-.23-5.74-.2-8.61-.37-1.68-.09-2.43.38-2.4,2.27q.17,9.46,0,18.94c0,1.85.68,2.4,2.37,2.32,3.83-.17,7.67-.17,11.49-.44a17.82,17.82,0,0,0,3.95-1.3c-.3,3.25-.62,6.55-.93,9.85h-.5a9.63,9.63,0,0,1-.22-1c-.39-2.91-1.32-4-4.23-4.25-3.26-.31-6.54-.36-9.8-.57-1.73-.12-2.16.67-2.14,2.28.07,6.4,0,12.79.05,19.19,0,4,1.16,5.38,5.15,5.66a70.81,70.81,0,0,0,9.77-.08,5.14,5.14,0,0,0,4.67-3.9c.31-1,.61-1.93.92-2.89l.77.13c-.53,2.94-.93,5.92-1.73,8.79-.16.58-1.88,1-2.87,1-7.75-.06-15.49-.26-23.24-.41C338.35,148.71,336.84,148.73,335.34,148.73Z"/><path class="cls-1" d="M293.29,14.88h31.36c-.26,2.72-.54,5.68-.89,9.35-.47-.89-.73-1.16-.75-1.45-.19-3.27-2.19-4.64-5.19-4.79-3.58-.19-7.18-.31-10.76-.28-.48,0-1.36,1.05-1.36,1.63q-.15,9.94,0,19.91c0,.55.93,1.57,1.44,1.57,3.91.06,7.83,0,11.73-.22a20.88,20.88,0,0,0,4.57-1.35c-.31,3.15-.63,6.51-1,9.92-.23-.12-.45-.16-.46-.24-.75-5.51-2.83-4.93-6.65-5.31-2.46-.25-4.94-.18-7.42-.31-1.7-.09-2.39.52-2.36,2.34.1,6.24,0,12.48.06,18.72,0,4.58,1.61,6.2,6.23,6.26,2.79,0,5.58-.15,8.36-.32,3.1-.19,4.64-2.13,5.33-5a13.75,13.75,0,0,1,.58-1.63l.72.14c-.46,2.77-.82,5.55-1.46,8.27-.12.54-1.32,1.19-2,1.19-5.67,0-11.35-.06-17-.09-2.95,0-5.9,0-8.85,0a15.36,15.36,0,0,1-3.36-.25c5-.53,4.92-4.27,5-7.67.17-13.26.23-26.53.31-39.8,0-1.12-.15-2.23-.23-3.35C298.82,16.47,298.83,16.47,293.29,14.88Z"/><path class="cls-1" d="M219.45,98.85c.69-3,1.38-6.07,2-8.83,15.8,1.41,31.25.86,46.86.46v8.93c-.4-.06-.65,0-.67-.11-1.28-4.08-2.65-5.16-7-5.35-3.59-.15-7.18-.2-10.77-.38-1.62-.08-2.28.47-2.28,2.18,0,14.15,0,28.3,0,42.46,0,1.75.27,3.5.41,5.25.27,3.29,1.27,4.26,4.63,4.54a3,3,0,0,1,1.77.68H236.5c0-.13,0-.36.1-.37,3.82-1.05,4.45-1.72,4.49-5.76.17-15.51.25-31,.42-46.52,0-1.86-.54-2.61-2.47-2.48-3,.2-6.07.34-9.1.28-4.3-.08-8.29.21-9.74,5.51Z"/><path class="cls-1" d="M311.18,148.73h-18.8a10.09,10.09,0,0,1,1.37-.6c3.12-.63,3.91-1.46,4-4.58.17-5.91.37-11.82.41-17.73.07-9.91,0-19.82,0-29.74,0-1.83-.47-2.61-2.42-2.51-4.3.22-8.64,0-12.91.52-1.66.2-3.23,1.68-4.7,2.76A7.17,7.17,0,0,0,276.86,99l-.63-.2c.66-3.06,1.33-6.12,1.91-8.78,15.87,1.41,31.3.88,46.84.44v9c-.44-.08-.68-.07-.69-.13-1.12-4-2.33-5.11-6.46-5.36-3.74-.23-7.5-.24-11.25-.43-1.58-.08-2.36.37-2.34,2.12.18,15.82.28,31.64.49,47.46,0,3.56,1.14,4.5,4.76,4.89a13.22,13.22,0,0,1,1.74.39Z"/><path class="cls-3" d="M116.46,39.61V33.26c3.82-3.93,8.14-2,12.3.55,6.16,3.82,9.64,9.26,8.85,16.73a14.27,14.27,0,0,1-8.11,11.57c2.32-2.54,1.59-5.46,1.21-8.32-.06-.44-.26-1-.11-1.32,1.44-3.16-.09-5.67-2-7.75A16.57,16.57,0,0,0,116.46,39.61Z"/><path class="cls-2" d="M103.06,40.4l1.2,3.5.68-.14.92-1.85.67.45L110,36.63c1.58,1.84,1.69,3.12.67,4.85-1.54,2.62-2.71,5.48-.78,8.5a10.42,10.42,0,0,0,1.23,1.26c.43.46.84.95,1.15,1.34,3.37,3.93,8,2.76,12,3.23.47,1.93.89,3.62,1.3,5.32-4.91,3.63-12.08,2.63-17.3-2.61l1.24-.12c-.28-.36-.44-.78-.72-.88-4-1.41-5.67-4.47-5.92-8.37-.18-2.91.1-5.84.17-8.75Z"/><path class="cls-1" d="M175.15,80.55a2.7,2.7,0,0,1,2.92-2.64,2.9,2.9,0,0,1,3.25,3,3.33,3.33,0,0,1-3.24,3.43C176.4,84.33,175.11,82.85,175.15,80.55Z"/><path class="cls-1" d="M194.44,77.89c1.23,0,2.31.93,2.42,2.86a3.12,3.12,0,1,1-6.2.35C190.63,79.32,192,77.94,194.44,77.89Z"/><path class="cls-2" d="M117.7,43.83c-2.35,2.35-4.08,6-2.26,8.42A4.71,4.71,0,0,1,113,47.81C113.14,45.64,114.89,44.39,117.7,43.83Z"/><path class="cls-4" d="M138.85,61.1l-6.74,6.69-.61-.6c2.84-1.66,3.6-5.33,6.59-6.84Z"/><path class="cls-4" d="M122.58,52.91c3-1,3.31-3.58,4-6,.74,1.86,1.37,3.77-.75,5.14a12.36,12.36,0,0,1-2.86,1.05C122.86,53.16,122.73,53,122.58,52.91Z"/></g></g></svg>